<?xml version="1.0" encoding="UTF-8"?>
<svg xmlns="http://www.w3.org/2000/svg" xmlns:xlink="http://www.w3.org/1999/xlink" width="65px" height="65px" viewBox="0 0 65 65" version="1.1">
<g id="surface1">
<path style=" stroke:none;fill-rule:nonzero;fill:rgb(35.686275%,25.882353%,50.980392%);fill-opacity:1;" d="M 38.441406 33.3125 C 37.257812 32.925781 35.550781 33.007812 33.324219 33.007812 L 24.375 33.007812 L 24.375 44.6875 L 33.945312 44.6875 C 35.4375 44.6875 36.488281 44.527344 37.09375 44.414062 C 38.160156 44.226562 39.050781 43.855469 39.765625 43.410156 C 40.484375 42.964844 41.070312 42.289062 41.535156 41.4375 C 41.996094 40.585938 42.226562 39.589844 42.226562 38.476562 C 42.226562 37.175781 41.890625 36.171875 41.222656 35.210938 C 40.554688 34.246094 39.628906 33.703125 38.441406 33.3125 Z M 37.214844 27.972656 C 38.390625 27.625 39.277344 27.015625 39.875 26.203125 C 40.472656 25.390625 40.769531 24.359375 40.769531 23.132812 C 40.769531 21.972656 40.492188 20.941406 39.933594 20.058594 C 39.375 19.175781 38.582031 18.835938 37.546875 18.507812 C 36.511719 18.183594 34.738281 18.28125 32.226562 18.28125 L 24.375 18.28125 L 24.375 28.4375 L 32.796875 28.4375 C 34.851562 28.4375 36.320312 28.246094 37.214844 27.972656 Z M 63.984375 9.457031 C 63.984375 4.796875 60.203125 1.015625 55.542969 1.015625 L 8.949219 1.015625 C 4.289062 1.015625 0.507812 4.796875 0.507812 9.457031 L 0.507812 56.050781 C 0.507812 60.710938 4.289062 64.492188 8.949219 64.492188 L 55.542969 64.492188 C 60.203125 64.492188 63.984375 60.710938 63.984375 56.050781 Z M 45.984375 43.035156 C 45.292969 44.441406 44.4375 45.527344 43.417969 46.292969 C 42.398438 47.054688 41.121094 47.703125 39.585938 48.09375 C 38.054688 48.484375 36.171875 48.75 33.945312 48.75 L 19.804688 48.75 L 19.804688 13.710938 L 33.730469 13.710938 C 36.402344 13.710938 38.546875 14.019531 40.160156 14.726562 C 41.777344 15.4375 43.039062 16.503906 43.957031 17.976562 C 44.871094 19.445312 45.328125 20.976562 45.328125 22.582031 C 45.328125 24.078125 44.921875 25.480469 44.109375 26.800781 C 43.300781 28.121094 42.074219 29.183594 40.4375 29.996094 C 42.550781 30.617188 44.179688 31.671875 45.316406 33.167969 C 46.453125 34.664062 47.023438 36.429688 47.023438 38.464844 C 47.023438 40.105469 46.675781 41.625 45.984375 43.035156 Z M 45.984375 43.035156 "/>
</g>
</svg>
