<?xml version="1.0" encoding="UTF-8"?>
<svg xmlns="http://www.w3.org/2000/svg" xmlns:xlink="http://www.w3.org/1999/xlink" width="65px" height="65px" viewBox="0 0 65 65" version="1.1">
<g id="surface1">
<path style=" stroke:none;fill-rule:nonzero;fill:rgb(72.941176%,9.019608%,30.588235%);fill-opacity:1;" d="M 5.078125 29.746094 L 29.746094 5.078125 C 31.269531 3.558594 33.730469 3.558594 35.253906 5.078125 L 59.921875 29.746094 C 61.441406 31.269531 61.441406 33.730469 59.921875 35.253906 L 35.253906 59.921875 C 33.730469 61.441406 31.269531 61.441406 29.746094 59.921875 L 5.078125 35.253906 C 3.558594 33.730469 3.558594 31.269531 5.078125 29.746094 Z M 5.078125 29.746094 "/>
<path style=" stroke:none;fill-rule:nonzero;fill:rgb(0%,0%,0%);fill-opacity:0.2;" d="M 22.777344 19.53125 C 20.265625 19.53125 18.230469 21.5625 18.230469 24.074219 C 18.234375 25.828125 19.246094 27.421875 20.828125 28.175781 L 20.828125 39.449219 C 19.246094 40.199219 18.234375 41.796875 18.230469 43.550781 C 18.234375 45.300781 19.242188 46.898438 20.828125 47.648438 L 20.828125 51 L 24.722656 54.898438 L 24.722656 47.648438 C 26.308594 46.898438 27.320312 45.304688 27.320312 43.550781 C 27.320312 43.03125 27.226562 42.515625 27.050781 42.027344 L 40.730469 28.351562 C 41.21875 28.527344 41.734375 28.617188 42.253906 28.617188 C 44.761719 28.617188 46.796875 26.582031 46.796875 24.074219 C 46.796875 21.5625 44.761719 19.53125 42.253906 19.53125 C 39.742188 19.53125 37.707031 21.5625 37.707031 24.074219 C 37.710938 24.59375 37.800781 25.105469 37.972656 25.59375 L 24.722656 38.847656 L 24.722656 28.175781 C 26.308594 27.421875 27.320312 25.828125 27.320312 24.074219 C 27.320312 21.5625 25.285156 19.53125 22.777344 19.53125 Z M 22.777344 19.53125 "/>
<path style=" stroke:none;fill-rule:nonzero;fill:rgb(100%,100%,100%);fill-opacity:0.2;" d="M 5.078125 29.746094 C 9.925781 24.902344 29.746094 5.078125 29.746094 5.078125 C 31.273438 3.554688 33.726562 3.554688 35.253906 5.078125 L 59.921875 29.746094 C 37.695312 11.726562 36.394531 5.234375 32.5 5.234375 C 28.605469 5.234375 27.304688 11.726562 5.078125 29.746094 Z M 5.078125 29.746094 "/>
<path style=" stroke:none;fill-rule:nonzero;fill:rgb(94.901961%,94.901961%,94.901961%);fill-opacity:1;" d="M 22.761719 18.21875 C 20.253906 18.21875 18.21875 20.253906 18.21875 22.761719 C 18.21875 24.515625 19.230469 26.109375 20.816406 26.863281 L 20.816406 38.136719 C 19.230469 38.890625 18.21875 40.484375 18.21875 42.238281 C 18.21875 43.992188 19.230469 45.585938 20.8125 46.339844 L 20.8125 50.984375 L 24.710938 54.882812 L 24.710938 46.339844 C 26.292969 45.585938 27.304688 43.992188 27.304688 42.238281 C 27.304688 41.71875 27.214844 41.203125 27.039062 40.714844 L 40.714844 27.039062 C 41.203125 27.214844 41.71875 27.304688 42.238281 27.304688 C 44.746094 27.304688 46.78125 25.273438 46.78125 22.761719 C 46.78125 20.253906 44.746094 18.21875 42.238281 18.21875 C 39.726562 18.21875 37.695312 20.253906 37.695312 22.761719 C 37.695312 23.28125 37.785156 23.796875 37.960938 24.285156 L 24.710938 37.535156 L 24.710938 26.863281 C 26.292969 26.109375 27.304688 24.515625 27.304688 22.761719 C 27.304688 20.253906 25.273438 18.21875 22.761719 18.21875 Z M 22.761719 18.21875 "/>
<path style=" stroke:none;fill-rule:nonzero;fill:rgb(0%,0%,0%);fill-opacity:0.2;" d="M 5.078125 35.253906 C 9.925781 40.097656 29.746094 59.921875 29.746094 59.921875 C 31.273438 61.445312 33.726562 61.445312 35.253906 59.921875 L 59.921875 35.253906 C 37.695312 53.273438 36.394531 59.765625 32.5 59.765625 C 28.605469 59.765625 27.304688 53.273438 5.078125 35.253906 Z M 5.078125 35.253906 "/>
</g>
</svg>
