<?xml version="1.0" encoding="UTF-8"?>
<svg xmlns="http://www.w3.org/2000/svg" xmlns:xlink="http://www.w3.org/1999/xlink" width="65px" height="65px" viewBox="0 0 65 65" version="1.1">
<g id="surface1">
<path style=" stroke:none;fill-rule:nonzero;fill:rgb(85.490196%,27.45098%,28.235294%);fill-opacity:1;" d="M 32.382812 48.941406 C 29.976562 48.953125 27.578125 48.683594 25.234375 48.144531 C 24.539062 47.988281 23.855469 47.777344 23.191406 47.511719 L 24.84375 50.335938 L 25.488281 59.148438 C 25.488281 60.140625 28.628906 60.941406 32.503906 60.941406 C 36.375 60.941406 39.515625 60.140625 39.515625 59.148438 L 40.027344 50.238281 L 41.585938 47.503906 C 40.917969 47.773438 40.230469 47.988281 39.527344 48.144531 C 37.183594 48.683594 34.785156 48.953125 32.382812 48.941406 Z M 41.640625 20.257812 C 38.609375 20.632812 35.554688 20.8125 32.5 20.789062 C 29.445312 20.8125 26.390625 20.632812 23.359375 20.257812 C 22.394531 20.140625 21.445312 19.941406 20.515625 19.664062 C 20.273438 19.589844 20.039062 19.492188 19.816406 19.375 L 21.328125 33.3125 C 21.398438 33.074219 21.476562 32.832031 21.5625 32.59375 C 21.738281 32.101562 21.941406 31.625 22.171875 31.15625 C 22.402344 30.699219 22.65625 30.257812 22.9375 29.832031 C 23.203125 29.425781 23.496094 29.042969 23.8125 28.679688 C 24.105469 28.351562 24.421875 28.046875 24.769531 27.777344 C 25.074219 27.539062 25.40625 27.339844 25.757812 27.1875 C 26.070312 27.050781 26.40625 26.984375 26.746094 26.984375 C 27.132812 26.984375 27.511719 27.09375 27.839844 27.292969 C 28.242188 27.546875 28.578125 27.886719 28.828125 28.292969 C 28.894531 28.382812 28.941406 28.492188 28.960938 28.605469 C 28.980469 28.703125 28.988281 28.800781 28.988281 28.902344 C 29 29.089844 28.945312 29.273438 28.832031 29.425781 C 28.742188 29.542969 28.605469 29.613281 28.457031 29.617188 C 28.308594 29.609375 28.171875 29.535156 28.085938 29.414062 C 27.941406 29.222656 27.8125 29.023438 27.703125 28.8125 C 27.601562 28.613281 27.449219 28.4375 27.265625 28.304688 C 27.113281 28.199219 26.933594 28.144531 26.75 28.144531 C 26.410156 28.164062 26.085938 28.289062 25.820312 28.503906 C 25.457031 28.777344 25.128906 29.097656 24.84375 29.457031 C 24.5 29.882812 24.1875 30.332031 23.914062 30.808594 C 23.621094 31.3125 23.359375 31.832031 23.132812 32.367188 C 22.914062 32.875 22.730469 33.402344 22.589844 33.9375 C 22.464844 34.390625 22.394531 34.859375 22.386719 35.328125 C 22.386719 35.472656 22.394531 35.613281 22.414062 35.753906 C 22.429688 35.886719 22.464844 36.019531 22.519531 36.144531 C 22.566406 36.257812 22.632812 36.355469 22.722656 36.4375 C 22.816406 36.515625 22.9375 36.554688 23.0625 36.550781 C 23.246094 36.542969 23.425781 36.488281 23.582031 36.394531 C 23.796875 36.28125 24.003906 36.144531 24.191406 35.988281 C 24.414062 35.8125 24.621094 35.625 24.820312 35.421875 C 25.03125 35.214844 25.230469 35 25.410156 34.78125 C 25.59375 34.566406 25.753906 34.359375 25.894531 34.160156 C 26.015625 33.996094 26.121094 33.824219 26.210938 33.644531 L 26.789062 31.917969 C 26.835938 31.757812 26.933594 31.613281 27.0625 31.511719 C 27.167969 31.4375 27.289062 31.394531 27.414062 31.394531 C 27.472656 31.394531 27.53125 31.402344 27.589844 31.421875 C 27.710938 31.460938 27.808594 31.554688 27.851562 31.675781 C 27.882812 31.75 27.894531 31.828125 27.894531 31.90625 C 27.894531 32.128906 27.871094 32.351562 27.832031 32.570312 C 27.789062 32.773438 27.738281 32.980469 27.671875 33.179688 C 27.609375 33.375 27.535156 33.570312 27.457031 33.769531 C 27.378906 33.96875 27.304688 34.175781 27.230469 34.390625 C 27.191406 34.464844 27.164062 34.542969 27.140625 34.621094 C 27.097656 34.757812 27.042969 34.921875 26.980469 35.113281 C 26.917969 35.304688 26.851562 35.523438 26.777344 35.769531 L 26.554688 36.511719 C 26.476562 36.761719 26.402344 37.011719 26.335938 37.253906 C 26.265625 37.496094 26.203125 37.714844 26.144531 37.910156 L 26.007812 38.402344 C 25.96875 38.535156 25.945312 38.605469 25.9375 38.636719 C 25.910156 38.726562 25.878906 38.816406 25.835938 38.898438 C 25.792969 38.992188 25.738281 39.085938 25.675781 39.171875 C 25.621094 39.246094 25.550781 39.316406 25.472656 39.375 C 25.410156 39.425781 25.328125 39.457031 25.246094 39.460938 C 25.132812 39.46875 25.023438 39.417969 24.957031 39.328125 C 24.882812 39.175781 24.851562 39.007812 24.867188 38.839844 L 24.867188 38.738281 C 24.863281 38.703125 24.863281 38.664062 24.867188 38.628906 C 24.894531 38.476562 24.933594 38.332031 24.984375 38.1875 C 25.042969 37.972656 25.109375 37.726562 25.1875 37.457031 C 25.265625 37.183594 25.351562 36.902344 25.449219 36.609375 C 25.539062 36.320312 25.625 36.058594 25.699219 35.828125 C 25.480469 36.074219 25.242188 36.316406 24.988281 36.558594 C 24.738281 36.796875 24.476562 37.015625 24.199219 37.214844 C 23.945312 37.398438 23.671875 37.558594 23.386719 37.6875 C 23.140625 37.804688 22.871094 37.867188 22.597656 37.871094 C 22.335938 37.878906 22.078125 37.8125 21.851562 37.679688 C 21.8125 37.65625 21.777344 37.632812 21.742188 37.605469 L 22.585938 46.445312 C 22.804688 46.996094 26.9375 48.347656 32.386719 48.347656 C 37.835938 48.347656 41.972656 46.992188 42.1875 46.441406 L 43.40625 35.933594 L 43.117188 36.199219 C 42.800781 36.496094 42.472656 36.773438 42.132812 37.035156 C 41.855469 37.25 41.550781 37.429688 41.230469 37.574219 C 40.933594 37.703125 40.613281 37.765625 40.289062 37.765625 C 40.027344 37.78125 39.773438 37.710938 39.558594 37.5625 C 39.386719 37.425781 39.292969 37.214844 39.300781 36.996094 L 39.300781 36.941406 C 39.300781 36.921875 39.300781 36.898438 39.300781 36.878906 C 39.328125 36.699219 39.394531 36.527344 39.492188 36.371094 C 39.617188 36.164062 39.753906 35.964844 39.898438 35.777344 C 40.058594 35.570312 40.222656 35.363281 40.402344 35.152344 C 40.578125 34.941406 40.742188 34.738281 40.894531 34.550781 C 41.03125 34.386719 41.15625 34.214844 41.269531 34.035156 C 41.355469 33.921875 41.40625 33.789062 41.417969 33.652344 C 41.421875 33.597656 41.398438 33.546875 41.355469 33.511719 C 41.296875 33.472656 41.222656 33.453125 41.152344 33.460938 C 40.976562 33.464844 40.800781 33.507812 40.640625 33.589844 C 40.453125 33.683594 40.277344 33.796875 40.121094 33.933594 C 39.941406 34.085938 39.773438 34.253906 39.617188 34.429688 C 39.453125 34.617188 39.300781 34.808594 39.160156 35.011719 C 39.015625 35.210938 38.886719 35.414062 38.769531 35.621094 C 38.652344 35.824219 38.550781 36.011719 38.46875 36.183594 L 38.363281 36.410156 C 38.316406 36.507812 38.265625 36.617188 38.214844 36.742188 C 38.160156 36.863281 38.105469 36.992188 38.042969 37.117188 C 37.984375 37.253906 37.929688 37.378906 37.878906 37.488281 L 37.746094 37.796875 C 37.707031 37.886719 37.675781 37.949219 37.660156 37.980469 C 37.644531 38.015625 37.609375 38.097656 37.558594 38.230469 C 37.511719 38.355469 37.457031 38.496094 37.394531 38.664062 L 37.191406 39.179688 L 37 39.695312 L 36.839844 40.121094 C 36.796875 40.242188 36.765625 40.324219 36.753906 40.371094 C 36.714844 40.496094 36.664062 40.613281 36.605469 40.730469 C 36.554688 40.835938 36.492188 40.9375 36.414062 41.027344 C 36.34375 41.113281 36.261719 41.179688 36.167969 41.230469 C 36.070312 41.285156 35.960938 41.3125 35.855469 41.308594 C 35.722656 41.316406 35.59375 41.277344 35.484375 41.203125 C 35.375 41.097656 35.320312 40.949219 35.335938 40.796875 C 35.339844 40.695312 35.351562 40.59375 35.375 40.496094 C 35.398438 40.394531 35.429688 40.292969 35.46875 40.191406 C 35.503906 40.089844 35.542969 39.988281 35.582031 39.898438 C 35.625 39.804688 35.660156 39.710938 35.691406 39.621094 C 35.914062 39.132812 36.140625 38.640625 36.375 38.148438 C 36.605469 37.65625 36.828125 37.167969 37.039062 36.6875 C 37.085938 36.585938 37.125 36.484375 37.167969 36.386719 L 37.128906 36.425781 C 36.875 36.671875 36.601562 36.902344 36.316406 37.113281 C 36.070312 37.300781 35.804688 37.457031 35.523438 37.585938 C 35.28125 37.699219 35.023438 37.757812 34.757812 37.761719 C 34.609375 37.765625 34.464844 37.738281 34.332031 37.683594 C 34.222656 37.632812 34.132812 37.558594 34.058594 37.460938 C 33.988281 37.363281 33.9375 37.25 33.914062 37.132812 C 33.914062 37.089844 33.898438 37.042969 33.890625 36.996094 C 33.816406 37.054688 33.746094 37.109375 33.671875 37.160156 C 33.433594 37.332031 33.179688 37.476562 32.914062 37.597656 C 32.703125 37.699219 32.476562 37.753906 32.242188 37.761719 C 32.0625 37.769531 31.886719 37.695312 31.761719 37.558594 C 31.617188 37.363281 31.550781 37.125 31.574219 36.882812 C 31.582031 36.617188 31.613281 36.355469 31.675781 36.097656 C 31.558594 36.300781 31.421875 36.496094 31.269531 36.679688 C 31.105469 36.875 30.917969 37.054688 30.714844 37.214844 C 30.503906 37.378906 30.269531 37.511719 30.023438 37.605469 C 29.753906 37.707031 29.472656 37.757812 29.183594 37.757812 C 29.050781 37.757812 28.917969 37.742188 28.789062 37.707031 C 28.667969 37.671875 28.554688 37.613281 28.460938 37.53125 C 28.359375 37.4375 28.28125 37.320312 28.230469 37.195312 C 28.167969 37.027344 28.136719 36.847656 28.144531 36.667969 C 28.144531 36.667969 28.144531 36.589844 28.167969 36.445312 C 28.203125 36.214844 28.257812 35.984375 28.324219 35.761719 C 28.414062 35.449219 28.550781 35.042969 28.730469 34.542969 C 28.914062 34.042969 29.175781 33.441406 29.519531 32.742188 C 29.582031 32.585938 29.6875 32.445312 29.820312 32.335938 C 29.929688 32.257812 30.058594 32.214844 30.191406 32.214844 C 30.25 32.214844 30.3125 32.226562 30.371094 32.242188 C 30.433594 32.257812 30.492188 32.285156 30.546875 32.324219 C 30.597656 32.359375 30.644531 32.40625 30.675781 32.464844 C 30.710938 32.523438 30.726562 32.59375 30.726562 32.667969 C 30.726562 32.714844 30.71875 32.761719 30.707031 32.808594 C 30.671875 32.921875 30.628906 33.03125 30.574219 33.132812 C 30.503906 33.269531 30.425781 33.421875 30.332031 33.597656 C 30.242188 33.769531 30.144531 33.957031 30.042969 34.160156 C 29.941406 34.359375 29.847656 34.566406 29.761719 34.78125 C 29.675781 35 29.601562 35.21875 29.539062 35.441406 C 29.476562 35.652344 29.441406 35.871094 29.433594 36.089844 C 29.433594 36.175781 29.453125 36.257812 29.496094 36.332031 C 29.535156 36.40625 29.617188 36.449219 29.699219 36.441406 C 29.976562 36.441406 30.246094 36.347656 30.46875 36.179688 C 30.722656 35.992188 30.953125 35.769531 31.144531 35.519531 C 31.355469 35.253906 31.542969 34.972656 31.707031 34.675781 C 31.875 34.375 32.011719 34.097656 32.125 33.847656 C 32.203125 33.675781 32.273438 33.496094 32.328125 33.3125 C 32.386719 33.132812 32.453125 32.957031 32.53125 32.785156 C 32.589844 32.636719 32.671875 32.5 32.773438 32.378906 C 32.855469 32.273438 32.980469 32.214844 33.113281 32.214844 C 33.25 32.210938 33.382812 32.273438 33.46875 32.382812 C 33.554688 32.5 33.601562 32.644531 33.597656 32.789062 C 33.589844 32.914062 33.5625 33.039062 33.511719 33.152344 C 33.457031 33.308594 33.390625 33.484375 33.308594 33.683594 C 33.230469 33.878906 33.136719 34.09375 33.035156 34.316406 C 32.933594 34.542969 32.84375 34.773438 32.757812 35.003906 C 32.679688 35.226562 32.609375 35.457031 32.554688 35.6875 C 32.5 35.890625 32.472656 36.097656 32.472656 36.308594 C 32.460938 36.382812 32.488281 36.457031 32.542969 36.507812 C 32.59375 36.558594 32.671875 36.585938 32.742188 36.574219 C 32.910156 36.5625 33.074219 36.519531 33.222656 36.441406 C 33.433594 36.339844 33.632812 36.214844 33.820312 36.070312 C 33.875 36.027344 33.925781 35.988281 33.976562 35.945312 C 34.027344 35.71875 34.097656 35.496094 34.179688 35.28125 C 34.324219 34.898438 34.472656 34.519531 34.621094 34.140625 L 35.027344 33.105469 L 36.90625 28.367188 C 36.960938 28.203125 37.066406 28.058594 37.207031 27.960938 C 37.320312 27.886719 37.453125 27.84375 37.589844 27.84375 C 37.714844 27.84375 37.839844 27.886719 37.9375 27.964844 C 38.050781 28.070312 38.109375 28.21875 38.097656 28.371094 C 38.09375 28.46875 38.078125 28.5625 38.042969 28.652344 C 38.003906 28.757812 37.960938 28.863281 37.910156 28.96875 C 37.804688 29.199219 37.683594 29.480469 37.539062 29.8125 C 37.394531 30.144531 37.242188 30.507812 37.082031 30.898438 C 36.917969 31.289062 36.75 31.695312 36.578125 32.117188 L 36.078125 33.355469 C 35.914062 33.761719 35.761719 34.140625 35.617188 34.496094 L 35.25 35.433594 C 35.195312 35.5625 35.152344 35.695312 35.113281 35.828125 C 35.074219 35.957031 35.050781 36.09375 35.050781 36.234375 C 35.046875 36.292969 35.058594 36.355469 35.085938 36.410156 C 35.117188 36.457031 35.171875 36.484375 35.226562 36.476562 C 35.339844 36.46875 35.453125 36.4375 35.554688 36.386719 C 35.699219 36.316406 35.839844 36.234375 35.976562 36.144531 C 36.128906 36.042969 36.285156 35.929688 36.445312 35.796875 C 36.609375 35.667969 36.773438 35.535156 36.933594 35.390625 C 37.09375 35.257812 37.25 35.117188 37.398438 34.972656 C 37.546875 34.832031 37.675781 34.703125 37.792969 34.589844 C 37.820312 34.5625 37.851562 34.539062 37.886719 34.523438 C 37.957031 34.320312 38.019531 34.117188 38.074219 33.914062 C 38.109375 33.828125 38.152344 33.703125 38.210938 33.539062 C 38.273438 33.378906 38.339844 33.21875 38.414062 33.0625 C 38.484375 32.917969 38.566406 32.78125 38.667969 32.65625 C 38.738281 32.5625 38.851562 32.503906 38.96875 32.5 C 39.101562 32.488281 39.230469 32.527344 39.328125 32.613281 C 39.410156 32.707031 39.449219 32.828125 39.441406 32.949219 C 39.4375 32.996094 39.433594 33.042969 39.429688 33.089844 C 39.429688 33.152344 39.410156 33.222656 39.398438 33.292969 C 39.386719 33.363281 39.371094 33.429688 39.359375 33.496094 C 39.347656 33.542969 39.335938 33.589844 39.316406 33.636719 C 39.46875 33.46875 39.636719 33.304688 39.8125 33.140625 C 39.984375 32.980469 40.171875 32.832031 40.363281 32.695312 C 40.546875 32.566406 40.742188 32.460938 40.949219 32.371094 C 41.136719 32.292969 41.339844 32.25 41.542969 32.25 C 41.679688 32.25 41.816406 32.269531 41.949219 32.308594 C 42.078125 32.34375 42.199219 32.402344 42.308594 32.480469 C 42.414062 32.554688 42.503906 32.652344 42.566406 32.765625 C 42.636719 32.890625 42.671875 33.03125 42.667969 33.171875 C 42.660156 33.394531 42.609375 33.613281 42.515625 33.816406 C 42.40625 34.054688 42.277344 34.285156 42.132812 34.503906 C 41.980469 34.734375 41.8125 34.957031 41.636719 35.175781 C 41.460938 35.394531 41.292969 35.589844 41.136719 35.769531 L 40.746094 36.226562 C 40.671875 36.296875 40.617188 36.382812 40.582031 36.480469 C 40.578125 36.53125 40.601562 36.585938 40.636719 36.625 C 40.691406 36.664062 40.757812 36.683594 40.824219 36.679688 C 40.933594 36.664062 41.042969 36.625 41.136719 36.558594 C 41.335938 36.4375 41.527344 36.300781 41.707031 36.152344 C 41.953125 35.960938 42.265625 35.703125 42.644531 35.375 C 42.902344 35.152344 43.207031 34.886719 43.550781 34.585938 L 45.191406 19.390625 C 44.96875 19.507812 44.734375 19.605469 44.492188 19.679688 C 43.558594 19.953125 42.605469 20.148438 41.640625 20.257812 Z M 32.5 16.65625 C 25.40625 16.65625 19.660156 17.449219 19.660156 18.425781 C 19.660156 19.40625 25.390625 20.195312 32.5 20.195312 C 39.609375 20.195312 45.339844 19.402344 45.339844 18.421875 C 45.339844 17.445312 39.585938 16.65625 32.5 16.65625 Z M 37.625 18.945312 C 37.625 19.175781 36.945312 19.351562 36.101562 19.351562 C 35.257812 19.351562 34.574219 19.164062 34.574219 18.945312 C 34.574219 18.726562 35.257812 18.539062 36.101562 18.539062 C 36.945312 18.539062 37.621094 18.710938 37.621094 18.941406 Z M 37.625 18.945312 "/>
<path style=" stroke:none;fill-rule:nonzero;fill:rgb(85.490196%,27.45098%,28.235294%);fill-opacity:1;" d="M 34.875 18.757812 C 34.867188 18.765625 34.863281 18.78125 34.863281 18.792969 C 34.863281 18.941406 35.414062 19.0625 36.082031 19.0625 C 36.75 19.0625 37.300781 18.941406 37.300781 18.792969 L 38.90625 12.292969 L 45.289062 5.554688 C 45.421875 5.402344 45.152344 4.929688 44.695312 4.523438 C 44.242188 4.117188 43.75 3.980469 43.597656 4.136719 L 36.808594 11.292969 Z M 34.875 18.757812 "/>
</g>
</svg>
