<?xml version="1.0" encoding="UTF-8"?>
<svg xmlns="http://www.w3.org/2000/svg" xmlns:xlink="http://www.w3.org/1999/xlink" width="65px" height="65px" viewBox="0 0 65 65" version="1.1">
<g id="surface1">
<path style=" stroke:none;fill-rule:nonzero;fill:rgb(80.392157%,40.392157%,60%);fill-opacity:1;" d="M 53.035156 35.691406 C 51.25 35.695312 49.488281 36.105469 47.882812 36.886719 C 47.378906 36.054688 46.992188 35.15625 46.730469 34.21875 C 46.578125 33.484375 46.542969 32.730469 46.625 31.984375 C 46.800781 31.164062 47.023438 30.355469 47.300781 29.5625 C 47.289062 29.460938 47.175781 28.96875 46.03125 28.953125 C 44.886719 28.9375 43.902344 29.171875 43.796875 29.472656 C 43.597656 30.027344 43.441406 30.59375 43.320312 31.167969 C 42.375 33.503906 41.207031 35.742188 39.839844 37.859375 C 39.074219 36.601562 38.757812 35.121094 38.945312 33.660156 C 39.121094 32.839844 39.347656 32.03125 39.621094 31.242188 C 39.613281 31.136719 39.496094 30.648438 38.355469 30.632812 C 37.210938 30.613281 36.226562 30.847656 36.121094 31.152344 C 36.015625 31.453125 35.878906 32.167969 35.640625 32.84375 C 35.40625 33.523438 32.628906 39.722656 31.902344 41.320312 C 31.527344 42.132812 31.207031 42.796875 30.980469 43.242188 C 30.96875 43.273438 30.953125 43.300781 30.9375 43.328125 C 30.734375 43.710938 30.628906 43.917969 30.628906 43.917969 L 30.628906 43.929688 C 30.472656 44.210938 30.304688 44.46875 30.222656 44.46875 C 30.074219 43.890625 30.082031 43.28125 30.242188 42.703125 C 30.648438 40.554688 31.644531 37.210938 31.632812 37.09375 C 31.632812 37.03125 31.820312 36.449219 30.988281 36.148438 C 30.59375 35.960938 30.125 36.042969 29.816406 36.351562 C 29.742188 36.351562 29.691406 36.53125 29.691406 36.53125 C 29.691406 36.53125 30.59375 32.769531 27.964844 32.769531 C 25.898438 33.1875 24.085938 34.417969 22.9375 36.1875 C 22.230469 36.574219 20.726562 37.394531 19.117188 38.277344 C 18.507812 38.621094 17.867188 38.964844 17.277344 39.292969 C 17.238281 39.25 17.195312 39.199219 17.152344 39.160156 C 13.953125 35.75 8.074219 33.34375 8.328125 28.785156 C 8.421875 27.125 8.992188 22.761719 19.621094 17.460938 C 28.367188 13.148438 35.328125 14.34375 36.53125 16.992188 C 38.257812 20.777344 32.800781 27.796875 23.765625 28.816406 C 21.742188 29.226562 19.636719 28.695312 18.050781 27.371094 C 17.574219 26.851562 17.5 26.820312 17.324219 26.925781 C 17.035156 27.082031 17.222656 27.546875 17.324219 27.816406 C 18.019531 29.078125 19.199219 30.003906 20.585938 30.382812 C 24.140625 31.152344 27.847656 30.785156 31.183594 29.332031 C 36.667969 27.214844 40.933594 21.324219 39.683594 16.390625 C 38.425781 11.382812 30.117188 9.730469 22.25 12.53125 C 17.324219 14.1875 12.773438 16.800781 8.855469 20.214844 C 4.523438 24.265625 3.835938 27.789062 4.117188 29.265625 C 5.132812 34.5 12.347656 37.90625 15.230469 40.4375 C 15.085938 40.519531 14.953125 40.59375 14.839844 40.652344 C 13.394531 41.371094 7.890625 44.25 6.511719 47.292969 C 4.953125 50.746094 6.761719 53.210938 7.953125 53.546875 C 11.644531 54.429688 15.488281 52.871094 17.523438 49.671875 C 19.238281 47.039062 19.558594 43.738281 18.378906 40.828125 C 18.371094 40.804688 18.355469 40.785156 18.339844 40.765625 L 19.472656 40.101562 C 20.207031 39.664062 20.9375 39.261719 21.558594 38.925781 C 21.136719 40.148438 20.886719 41.417969 20.824219 42.710938 C 20.679688 44.683594 21.285156 46.644531 22.515625 48.195312 C 22.894531 48.519531 23.390625 48.679688 23.886719 48.640625 C 25.105469 48.640625 25.664062 47.625 26.277344 46.417969 C 27.023438 44.945312 27.699219 43.230469 27.699219 43.230469 C 27.699219 43.230469 26.855469 47.863281 29.140625 47.863281 C 29.972656 47.863281 30.8125 46.78125 31.191406 46.238281 L 31.191406 46.246094 C 31.191406 46.246094 31.210938 46.21875 31.253906 46.144531 L 31.386719 45.925781 L 31.386719 45.90625 C 31.71875 45.324219 32.46875 44.003906 33.578125 41.8125 C 35.011719 38.988281 36.394531 35.457031 36.394531 35.457031 C 36.527344 36.230469 36.710938 37 36.945312 37.75 C 37.277344 38.664062 37.675781 39.550781 38.128906 40.410156 C 37.796875 40.875 37.589844 41.136719 37.589844 41.136719 L 37.597656 41.148438 C 37.328125 41.5 37.039062 41.882812 36.714844 42.257812 C 35.753906 43.316406 34.863281 44.433594 34.046875 45.605469 C 33.792969 46.011719 33.902344 46.546875 34.296875 46.824219 C 34.722656 47.042969 35.210938 47.125 35.6875 47.050781 C 36.40625 47.011719 37.109375 46.851562 37.773438 46.574219 C 38.417969 46.347656 39.023438 46.03125 39.574219 45.628906 C 40.726562 44.832031 41.378906 43.488281 41.296875 42.085938 C 41.234375 41.21875 41.011719 40.371094 40.644531 39.582031 C 40.746094 39.4375 40.847656 39.292969 40.945312 39.144531 C 42.097656 37.421875 43.140625 35.625 44.058594 33.765625 C 44.191406 34.542969 44.375 35.308594 44.609375 36.0625 C 44.886719 36.847656 45.226562 37.613281 45.625 38.347656 C 44.296875 39.367188 43.25 40.710938 42.585938 42.25 C 41.929688 44.140625 42.4375 44.992188 43.398438 45.1875 C 43.921875 45.226562 44.445312 45.117188 44.914062 44.878906 C 45.601562 44.652344 46.25 44.320312 46.835938 43.890625 C 48.089844 43.152344 48.886719 41.832031 48.957031 40.378906 C 48.910156 39.664062 48.746094 38.964844 48.476562 38.300781 C 50.230469 37.617188 52.132812 37.398438 53.996094 37.667969 C 58.9375 38.25 59.914062 41.332031 59.730469 42.632812 C 59.550781 43.566406 58.980469 44.375 58.160156 44.855469 C 57.816406 45.074219 57.703125 45.148438 57.734375 45.304688 C 57.773438 45.53125 57.9375 45.519531 58.230469 45.480469 C 59.757812 45.003906 60.832031 43.640625 60.9375 42.046875 C 61.09375 39 58.183594 35.660156 53.042969 35.6875 Z M 14.890625 48.546875 C 13.246094 50.335938 10.960938 51.007812 9.976562 50.4375 C 8.914062 49.828125 9.332031 47.1875 11.347656 45.292969 C 12.542969 44.21875 13.832031 43.253906 15.207031 42.417969 C 15.445312 42.269531 15.800781 42.0625 16.222656 41.808594 L 16.335938 41.746094 L 16.585938 41.585938 C 17.316406 44.042969 16.667969 46.703125 14.890625 48.546875 Z M 26.835938 40.421875 C 26.265625 41.8125 25.070312 45.378906 24.34375 45.179688 C 23.71875 45.011719 23.328125 42.3125 24.21875 39.640625 C 24.667969 38.355469 25.324219 37.152344 26.160156 36.078125 C 27.054688 35.082031 28.042969 34.75 28.277344 35.15625 C 28.0625 36.972656 27.574219 38.746094 26.835938 40.421875 Z M 36.691406 45.136719 C 36.453125 45.261719 36.226562 45.339844 36.121094 45.285156 C 36.046875 45.242188 36.226562 45.082031 36.226562 45.082031 C 36.226562 45.082031 37.460938 43.75 37.949219 43.148438 C 38.230469 42.796875 38.558594 42.382812 38.917969 41.914062 L 38.917969 42.046875 C 38.917969 43.636719 37.378906 44.707031 36.695312 45.140625 Z M 44.296875 43.402344 C 44.121094 43.28125 44.152344 42.863281 44.746094 41.566406 C 45.15625 40.730469 45.734375 39.988281 46.4375 39.382812 C 46.546875 39.691406 46.601562 40.015625 46.605469 40.339844 C 46.621094 41.765625 45.675781 43.027344 44.300781 43.40625 Z M 44.296875 43.402344 "/>
</g>
</svg>
